<?xml version="1.0" standalone="no"?>
<!DOCTYPE svg PUBLIC "-//W3C//DTD SVG 20010904//EN"
 "http://www.w3.org/TR/2001/REC-SVG-20010904/DTD/svg10.dtd">
<svg version="1.0" xmlns="http://www.w3.org/2000/svg"
 width="152.000000pt" height="152.000000pt" viewBox="0 0 152.000000 152.000000"
 preserveAspectRatio="xMidYMid meet">
<metadata>
Created by potrace 1.11, written by Peter Selinger 2001-2013
</metadata>
<g transform="translate(0.000000,152.000000) scale(0.100000,-0.100000)"
fill="#000000" stroke="none">
<path d="M963 1508 c-5 -7 -22 -35 -37 -61 -19 -33 -39 -53 -62 -63 -44 -19
-83 -86 -94 -165 -11 -75 -40 -109 -175 -204 -149 -104 -199 -170 -225 -300
-10 -49 -9 -84 6 -212 l18 -153 -23 -66 c-42 -118 -10 -202 98 -253 51 -23 67
-26 176 -25 130 0 230 24 230 54 0 12 -12 15 -55 13 -199 -8 -237 -6 -286 10
-73 25 -115 78 -100 125 6 17 20 18 224 14 226 -5 347 6 389 34 34 22 28 41
-16 48 l-38 6 -22 107 c-31 159 -29 194 19 289 22 43 53 99 67 123 22 38 27
57 27 120 1 42 -3 101 -7 132 l-9 56 51 50 c61 60 67 94 22 117 -15 8 -35 26
-44 40 -9 13 -32 29 -51 36 -36 12 -41 21 -48 104 -3 32 -20 44 -35 24z"/>
</g>
</svg>
